<svg width="30px" height="30px" viewBox="0 0 28 28" fill="none" xmlns="http://www.w3.org/2000/svg">
<path fill-rule="evenodd" clip-rule="evenodd" d="M23.375 2.75C22.3395 2.75 21.5 3.58947 21.5 4.625C21.5 5.66053 22.3395 6.5 23.375 6.5C24.4105 6.5 25.25 5.66053 25.25 4.625C25.25 3.58947 24.4105 2.75 23.375 2.75ZM19.4053 3.5C19.895 1.76862 21.4868 0.5 23.375 0.5C25.6532 0.5 27.5 2.34683 27.5 4.625C27.5 6.90317 25.6532 8.75 23.375 8.75C21.4868 8.75 19.895 7.48138 19.4053 5.75H1.625C1.00368 5.75 0.5 5.24632 0.5 4.625C0.5 4.00368 1.00368 3.5 1.625 3.5H19.4053ZM8 12.125C6.96447 12.125 6.125 12.9645 6.125 14C6.125 15.0355 6.96447 15.875 8 15.875C9.03553 15.875 9.875 15.0355 9.875 14C9.875 12.9645 9.03553 12.125 8 12.125ZM4.03027 12.875C4.51997 11.1436 6.11183 9.875 8 9.875C9.88817 9.875 11.48 11.1436 11.9697 12.875H26.375C26.9963 12.875 27.5 13.3787 27.5 14C27.5 14.6213 26.9963 15.125 26.375 15.125H11.9697C11.48 16.8564 9.88817 18.125 8 18.125C6.11183 18.125 4.51997 16.8564 4.03027 15.125H1.625C1.00368 15.125 0.5 14.6213 0.5 14C0.5 13.3787 1.00368 12.875 1.625 12.875H4.03027ZM16.625 21.5C15.5895 21.5 14.75 22.3395 14.75 23.375C14.75 24.4105 15.5895 25.25 16.625 25.25C17.6605 25.25 18.5 24.4105 18.5 23.375C18.5 22.3395 17.6605 21.5 16.625 21.5ZM12.6553 22.25C13.145 20.5186 14.7368 19.25 16.625 19.25C18.5132 19.25 20.105 20.5186 20.5947 22.25H26.375C26.9963 22.25 27.5 22.7537 27.5 23.375C27.5 23.9963 26.9963 24.5 26.375 24.5H20.5947C20.105 26.2314 18.5132 27.5 16.625 27.5C14.7368 27.5 13.145 26.2314 12.6553 24.5H1.625C1.00368 24.5 0.5 23.9963 0.5 23.375C0.5 22.7537 1.00368 22.25 1.625 22.25H12.6553Z" fill="white"/>
</svg>
