<svg width="60" height="60" viewBox="0 0 60 60" fill="none" xmlns="http://www.w3.org/2000/svg">
<g id="Group 78">
<circle id="Ellipse 50" cx="30" cy="30" r="30" transform="rotate(90 30 30)" fill="#454545" fill-opacity="0.4"/>
<path id="Icon" fill-rule="evenodd" clip-rule="evenodd" d="M46.6037 28.3976C47.2832 29.1195 47.2832 30.2457 46.6037 30.9677L36.6037 41.5927C35.8939 42.3467 34.7073 42.3827 33.9532 41.673C33.1991 40.9633 33.1632 39.7766 33.8729 39.0226L40.8987 31.5576L13.9883 31.5576C12.9528 31.5576 12.1133 30.7182 12.1133 29.6826C12.1133 28.6471 12.9528 27.8076 13.9883 27.8076L40.8987 27.8076L33.8729 20.3427C33.1632 19.5886 33.1991 18.402 33.9532 17.6922C34.7073 16.9825 35.8939 17.0185 36.6037 17.7726L46.6037 28.3976Z" fill="#1E1E1E"/>
</g>
</svg>
