<svg width="96" height="45" viewBox="0 0 96 45" fill="none" xmlns="http://www.w3.org/2000/svg">
<path d="M7.30783 5.48L7.05583 10.716L16.4358 20.6H21.4758L13.0198 11.5L10.4998 8.812L7.30783 5.48ZM3.24783 1V20.6H7.75583V1H3.24783ZM16.6598 1L9.68783 9.54L12.6558 12.76L21.9518 1H16.6598ZM23.9744 1V20.6H28.5104V1H23.9744ZM33.1619 1V20.6H36.9139L48.4779 6.488H46.6579V20.6H51.1379V1H47.4139L35.8219 15.112H37.6419V1H33.1619ZM65.2952 0.664C63.7458 0.664 62.3085 0.916 60.9832 1.42C59.6765 1.924 58.5378 2.63333 57.5672 3.548C56.6152 4.46267 55.8685 5.536 55.3272 6.768C54.8045 8 54.5432 9.344 54.5432 10.8C54.5432 12.256 54.8045 13.6 55.3272 14.832C55.8685 16.064 56.6245 17.1373 57.5952 18.052C58.5658 18.9667 59.7045 19.676 61.0112 20.18C62.3178 20.684 63.7365 20.936 65.2672 20.936C66.8165 20.936 68.2352 20.684 69.5232 20.18C70.8298 19.676 71.9592 18.9667 72.9112 18.052C73.8818 17.1373 74.6378 16.064 75.1792 14.832C75.7205 13.6187 75.9912 12.2747 75.9912 10.8C75.9912 9.344 75.7205 7.99067 75.1792 6.74C74.6378 5.508 73.8818 4.43467 72.9112 3.52C71.9592 2.624 70.8298 1.924 69.5232 1.42C68.2352 0.916 66.8258 0.664 65.2952 0.664ZM65.2672 4.528C66.1445 4.528 66.9472 4.67733 67.6752 4.976C68.4218 5.27467 69.0752 5.704 69.6352 6.264C70.1952 6.824 70.6245 7.48667 70.9232 8.252C71.2405 9.01733 71.3992 9.86667 71.3992 10.8C71.3992 11.7333 71.2405 12.5827 70.9232 13.348C70.6245 14.1133 70.1952 14.776 69.6352 15.336C69.0938 15.896 68.4498 16.3253 67.7032 16.624C66.9565 16.9227 66.1445 17.072 65.2672 17.072C64.3898 17.072 63.5778 16.9227 62.8312 16.624C62.1032 16.3253 61.4592 15.896 60.8992 15.336C60.3392 14.776 59.9005 14.1133 59.5832 13.348C59.2845 12.5827 59.1352 11.7333 59.1352 10.8C59.1352 9.88533 59.2845 9.036 59.5832 8.252C59.9005 7.48667 60.3298 6.824 60.8712 6.264C61.4312 5.704 62.0845 5.27467 62.8312 4.976C63.5778 4.67733 64.3898 4.528 65.2672 4.528Z" fill="#B72828"/>
<path d="M21.4043 44.336C19.8363 44.336 18.3336 44.1307 16.8963 43.72C15.4589 43.2907 14.3016 42.74 13.4243 42.068L14.9643 38.652C15.8043 39.2493 16.7936 39.744 17.9323 40.136C19.0896 40.5093 20.2563 40.696 21.4323 40.696C22.3283 40.696 23.0469 40.612 23.5883 40.444C24.1483 40.2573 24.5589 40.0053 24.8203 39.688C25.0816 39.3707 25.2123 39.0067 25.2123 38.596C25.2123 38.0733 25.0069 37.6627 24.5963 37.364C24.1856 37.0467 23.6443 36.7947 22.9723 36.608C22.3003 36.4027 21.5536 36.216 20.7323 36.048C19.9296 35.8613 19.1176 35.6373 18.2963 35.376C17.4936 35.1147 16.7563 34.7787 16.0843 34.368C15.4123 33.9573 14.8616 33.416 14.4323 32.744C14.0216 32.072 13.8163 31.2133 13.8163 30.168C13.8163 29.048 14.1149 28.0307 14.7123 27.116C15.3283 26.1827 16.2429 25.4453 17.4563 24.904C18.6883 24.344 20.2283 24.064 22.0763 24.064C23.3083 24.064 24.5216 24.2133 25.7163 24.512C26.9109 24.792 27.9656 25.2213 28.8803 25.8L27.4803 29.244C26.5656 28.7213 25.6509 28.3387 24.7363 28.096C23.8216 27.8347 22.9256 27.704 22.0483 27.704C21.1709 27.704 20.4523 27.8067 19.8923 28.012C19.3323 28.2173 18.9309 28.488 18.6883 28.824C18.4456 29.1413 18.3243 29.5147 18.3243 29.944C18.3243 30.448 18.5296 30.8587 18.9403 31.176C19.3509 31.4747 19.8923 31.7173 20.5643 31.904C21.2363 32.0907 21.9736 32.2773 22.7763 32.464C23.5976 32.6507 24.4096 32.8653 25.2123 33.108C26.0336 33.3507 26.7803 33.6773 27.4523 34.088C28.1243 34.4987 28.6656 35.04 29.0763 35.712C29.5056 36.384 29.7203 37.2333 29.7203 38.26C29.7203 39.3613 29.4123 40.3693 28.7963 41.284C28.1803 42.1987 27.2563 42.936 26.0243 43.496C24.8109 44.056 23.2709 44.336 21.4043 44.336ZM34.0518 44V24.4H42.5358C44.2904 24.4 45.8024 24.6893 47.0718 25.268C48.3411 25.828 49.3211 26.64 50.0118 27.704C50.7024 28.768 51.0478 30.0373 51.0478 31.512C51.0478 32.968 50.7024 34.228 50.0118 35.292C49.3211 36.356 48.3411 37.1773 47.0718 37.756C45.8024 38.316 44.2904 38.596 42.5358 38.596H36.5718L38.5878 36.552V44H34.0518ZM38.5878 37.056L36.5718 34.9H42.2838C43.6838 34.9 44.7291 34.6013 45.4198 34.004C46.1104 33.4067 46.4558 32.576 46.4558 31.512C46.4558 30.4293 46.1104 29.5893 45.4198 28.992C44.7291 28.3947 43.6838 28.096 42.2838 28.096H36.5718L38.5878 25.94V37.056ZM65.3116 44.336C63.7622 44.336 62.3249 44.084 60.9996 43.58C59.6929 43.076 58.5542 42.3667 57.5836 41.452C56.6316 40.5373 55.8849 39.464 55.3436 38.232C54.8209 37 54.5596 35.656 54.5596 34.2C54.5596 32.744 54.8209 31.4 55.3436 30.168C55.8849 28.936 56.6409 27.8627 57.6116 26.948C58.5822 26.0333 59.7209 25.324 61.0276 24.82C62.3342 24.316 63.7529 24.064 65.2836 24.064C66.8329 24.064 68.2516 24.316 69.5396 24.82C70.8462 25.324 71.9756 26.0333 72.9276 26.948C73.8982 27.8627 74.6542 28.936 75.1956 30.168C75.7369 31.3813 76.0076 32.7253 76.0076 34.2C76.0076 35.656 75.7369 37.0093 75.1956 38.26C74.6542 39.492 73.8982 40.5653 72.9276 41.48C71.9756 42.376 70.8462 43.076 69.5396 43.58C68.2516 44.084 66.8422 44.336 65.3116 44.336ZM65.2836 40.472C66.1609 40.472 66.9636 40.3227 67.6916 40.024C68.4382 39.7253 69.0916 39.296 69.6516 38.736C70.2116 38.176 70.6409 37.5133 70.9396 36.748C71.2569 35.9827 71.4156 35.1333 71.4156 34.2C71.4156 33.2667 71.2569 32.4173 70.9396 31.652C70.6409 30.8867 70.2116 30.224 69.6516 29.664C69.1102 29.104 68.4662 28.6747 67.7196 28.376C66.9729 28.0773 66.1609 27.928 65.2836 27.928C64.4062 27.928 63.5942 28.0773 62.8476 28.376C62.1196 28.6747 61.4756 29.104 60.9156 29.664C60.3556 30.224 59.9169 30.8867 59.5996 31.652C59.3009 32.4173 59.1516 33.2667 59.1516 34.2C59.1516 35.1147 59.3009 35.964 59.5996 36.748C59.9169 37.5133 60.3462 38.176 60.8876 38.736C61.4476 39.296 62.1009 39.7253 62.8476 40.024C63.5942 40.3227 64.4062 40.472 65.2836 40.472ZM84.4351 44V28.096H78.1631V24.4H95.2431V28.096H88.9711V44H84.4351Z" fill="#CFCFCF"/>
</svg>
